# xmcd
#
# Track frame offsets:
#	150
#	6582
#	18680
#	29806
#	46976
#	61430
#	74033
#	88399
#	102185
#	112852
#	129862
#	139858
#	159589
#	169521
#
# Disc length: 2448 seconds
#
# Revision: 1
# Processed by: cddbd v1.5.2PL0 Copyright (c) Steve Scherf et al.
# Submitted via: audiograbber 1.83.01
#
DISCID=c7098e0e
DTITLE=Colorado Wranglers - Cowboy Gospel Jamboree
DYEAR=2006
DGENRE=Country
TTITLE0=Jesus Is The Same
TTITLE1=Amazing Grace! How Sweet The Sound
TTITLE2=Old Country Church
TTITLE3=What A Friend We Have In Jesus
TTITLE4=Church Out On The Plains
TTITLE5=Jesus Loves Me, This I Know
TTITLE6=The Old Rugged Cross
TTITLE7=Master's Call
TTITLE8=Leaning On The Everlasting Arms
TTITLE9=The Place Where I Worship Is The Wide Open Spaces
TTITLE10=When The Roll Is Called Up Yonder
TTITLE11=Mansion Over The Hilltop
TTITLE12=Children Go
TTITLE13=Circuit Riding Preacher
EXTD=
EXTT0=
EXTT1=
EXTT2=
EXTT3=
EXTT4=
EXTT5=
EXTT6=
EXTT7=
EXTT8=
EXTT9=
EXTT10=
EXTT11=
EXTT12=
EXTT13=
PLAYORDER=
